<svg width="86" height="86" viewBox="0 0 86 86" fill="none" xmlns="http://www.w3.org/2000/svg">
<path d="M53 70C53 67.6131 51.9991 65.3239 50.2175 63.636C48.4359 61.9482 46.0196 61 43.5 61C40.9804 61 38.5641 61.9482 36.7825 63.636C35.0009 65.3239 34 67.6131 34 70L43.5 70H53Z" fill="#7E869E" fill-opacity="0.25"/>
<mask id="path-2-inside-1_942_2" fill="white">
<path d="M53.143 70.0639C53.143 67.4546 52.1065 64.9521 50.2614 63.107C48.4163 61.2619 45.9138 60.2253 43.3044 60.2253C40.6951 60.2253 38.1926 61.2619 36.3475 63.107C34.5024 64.9521 33.4658 67.4546 33.4658 70.0639L43.3044 70.0639H53.143Z"/>
</mask>
<path d="M53.143 70.0639C53.143 67.4546 52.1065 64.9521 50.2614 63.107C48.4163 61.2619 45.9138 60.2253 43.3044 60.2253C40.6951 60.2253 38.1926 61.2619 36.3475 63.107C34.5024 64.9521 33.4658 67.4546 33.4658 70.0639L43.3044 70.0639H53.143Z" stroke="white" stroke-width="4" mask="url(#path-2-inside-1_942_2)"/>
<circle cx="43" cy="19" r="6" stroke="white" stroke-width="2"/>
<line x1="43" y1="25" x2="43" y2="61" stroke="white" stroke-width="2"/>
<path d="M76.1016 17.3953C76.6538 17.3953 77.1016 17.843 77.1016 18.3953C77.1016 18.9475 76.6538 19.3953 76.1016 19.3953V17.3953ZM76.1016 19.3953H49.5373V17.3953H76.1016V19.3953Z" fill="white"/>
<path d="M57.5714 43.0078H79.4623H80.6101C80.6374 47.1892 78.3144 55.552 68.8038 55.552C59.2931 55.552 56.5329 47.1892 56.3415 43.0078H57.5714Z" fill="#7E869E" fill-opacity="0.25"/>
<path d="M79.8173 43.4818L68.8377 20L57.2669 43.4818M79.8173 43.4818H57.2669M79.8173 43.4818H80.9998C81.0279 47.6545 78.6349 56 68.8377 56C59.0405 56 56.1971 47.6545 56 43.4818H57.2669" stroke="white" stroke-width="2"/>
<path d="M10.5098 17.3953C9.95748 17.3953 9.50977 17.843 9.50977 18.3953C9.50977 18.9475 9.95748 19.3953 10.5098 19.3953V17.3953ZM10.5098 19.3953H37.074V17.3953H10.5098V19.3953Z" fill="white"/>
<path d="M29.039 43.0078H7.14807H6.00024C5.97291 47.1892 8.29591 55.552 17.8066 55.552C27.3172 55.552 30.0775 47.1892 30.2688 43.0078H29.039Z" fill="#7E869E" fill-opacity="0.25"/>
<path d="M7.13536 43.4818L17.6758 20L28.7838 43.4818M7.13536 43.4818H28.7838M7.13536 43.4818H6.00023C5.97321 47.6545 8.27048 56 17.6758 56C27.0811 56 29.8108 47.6545 30 43.4818H28.7838" stroke="white" stroke-width="2"/>
</svg>
