<svg width="77" height="68" viewBox="0 0 77 68" fill="none" xmlns="http://www.w3.org/2000/svg">
<path d="M48 58C48 55.6131 46.9991 53.3239 45.2175 51.636C43.4359 49.9482 41.0196 49 38.5 49C35.9804 49 33.5641 49.9482 31.7825 51.636C30.0009 53.3239 29 55.6131 29 58L38.5 58H48Z" fill="#7E869E" fill-opacity="0.25"/>
<mask id="path-2-inside-1_942_3" fill="white">
<path d="M48.143 58.0639C48.143 55.4546 47.1065 52.9521 45.2614 51.107C43.4163 49.2619 40.9138 48.2253 38.3044 48.2253C35.6951 48.2253 33.1926 49.2619 31.3475 51.107C29.5024 52.9521 28.4658 55.4546 28.4658 58.0639L38.3044 58.0639H48.143Z"/>
</mask>
<path d="M48.143 58.0639C48.143 55.4546 47.1065 52.9521 45.2614 51.107C43.4163 49.2619 40.9138 48.2253 38.3044 48.2253C35.6951 48.2253 33.1926 49.2619 31.3475 51.107C29.5024 52.9521 28.4658 55.4546 28.4658 58.0639L38.3044 58.0639H48.143Z" stroke="white" stroke-width="4" mask="url(#path-2-inside-1_942_3)"/>
<circle cx="38" cy="7" r="6" stroke="white" stroke-width="2"/>
<line x1="38" y1="13" x2="38" y2="49" stroke="white" stroke-width="2"/>
<path d="M71.1016 5.39526C71.6538 5.39526 72.1016 5.84298 72.1016 6.39526C72.1016 6.94755 71.6538 7.39526 71.1016 7.39526V5.39526ZM71.1016 7.39526H44.5373V5.39526H71.1016V7.39526Z" fill="white"/>
<path d="M52.5714 31.0078H74.4623H75.6101C75.6374 35.1892 73.3144 43.552 63.8038 43.552C54.2931 43.552 51.5329 35.1892 51.3415 31.0078H52.5714Z" fill="#7E869E" fill-opacity="0.25"/>
<path d="M74.8173 31.4818L63.8377 8L52.2669 31.4818M74.8173 31.4818H52.2669M74.8173 31.4818H75.9998C76.0279 35.6545 73.6349 44 63.8377 44C54.0405 44 51.1971 35.6545 51 31.4818H52.2669" stroke="white" stroke-width="2"/>
<path d="M5.50977 5.39526C4.95748 5.39526 4.50977 5.84298 4.50977 6.39526C4.50977 6.94755 4.95748 7.39526 5.50977 7.39526V5.39526ZM5.50977 7.39526H32.074V5.39526H5.50977V7.39526Z" fill="white"/>
<path d="M24.039 31.0078H2.14807H1.00024C0.972908 35.1892 3.29591 43.552 12.8066 43.552C22.3172 43.552 25.0775 35.1892 25.2688 31.0078H24.039Z" fill="#7E869E" fill-opacity="0.25"/>
<path d="M2.13536 31.4818L12.6758 8L23.7838 31.4818M2.13536 31.4818H23.7838M2.13536 31.4818H1.00023C0.973208 35.6545 3.27048 44 12.6758 44C22.0811 44 24.8108 35.6545 25 31.4818H23.7838" stroke="white" stroke-width="2"/>
</svg>
