<svg width="82" height="68" viewBox="0 0 82 68" fill="none" xmlns="http://www.w3.org/2000/svg">
<path d="M9.00008 58.3333H31.0257C32.5741 58.3333 33.3483 58.3333 33.9955 58.4402C37.377 58.9985 40.0272 61.6487 40.5855 65.0302C40.6924 65.6774 40.6924 66.4516 40.6924 68V17C40.6924 9.45753 40.6924 5.68629 38.3492 3.34315C36.0061 1 32.2349 1 24.6924 1H9.00008C5.22884 1 3.34322 1 2.17165 2.17157C1.00008 3.34315 1.00008 5.22876 1.00008 8.99999V50.3333C1.00008 54.1046 1.00008 55.9902 2.17165 57.1618C3.34322 58.3333 5.22884 58.3333 9.00008 58.3333Z" stroke="white" stroke-width="2"/>
<path d="M72.3847 58.3333H50.3591C48.8106 58.3333 48.0364 58.3333 47.3892 58.4402C44.0077 58.9985 41.3575 61.6487 40.7992 65.0302C40.6924 65.6774 40.6924 66.4516 40.6924 68V17C40.6924 9.45753 40.6924 5.68629 43.0355 3.34315C45.3787 1 49.1499 1 56.6924 1H72.3847C76.1559 1 78.0415 1 79.2131 2.17157C80.3847 3.34315 80.3847 5.22876 80.3847 8.99999V50.3333C80.3847 54.1046 80.3847 55.9902 79.2131 57.1618C78.0415 58.3333 76.1559 58.3333 72.3847 58.3333Z" fill="#7E869E" fill-opacity="0.25" stroke="white" stroke-width="2"/>
</svg>
