<svg width="86" height="86" viewBox="0 0 86 86" fill="none" xmlns="http://www.w3.org/2000/svg">
<path d="M11.0001 68.3333H33.0257C34.5741 68.3333 35.3483 68.3333 35.9955 68.4402C39.377 68.9985 42.0272 71.6487 42.5855 75.0302C42.6924 75.6774 42.6924 76.4516 42.6924 78V27C42.6924 19.4575 42.6924 15.6863 40.3492 13.3431C38.0061 11 34.2349 11 26.6924 11H11.0001C7.22884 11 5.34322 11 4.17165 12.1716C3.00008 13.3431 3.00008 15.2288 3.00008 19V60.3333C3.00008 64.1046 3.00008 65.9902 4.17165 67.1618C5.34322 68.3333 7.22884 68.3333 11.0001 68.3333Z" stroke="white" stroke-width="2"/>
<path d="M74.3847 68.3333H52.3591C50.8106 68.3333 50.0364 68.3333 49.3892 68.4402C46.0077 68.9985 43.3575 71.6487 42.7992 75.0302C42.6924 75.6774 42.6924 76.4516 42.6924 78V27C42.6924 19.4575 42.6924 15.6863 45.0355 13.3431C47.3787 11 51.1499 11 58.6924 11H74.3847C78.1559 11 80.0415 11 81.2131 12.1716C82.3847 13.3431 82.3847 15.2288 82.3847 19V60.3333C82.3847 64.1046 82.3847 65.9902 81.2131 67.1618C80.0415 68.3333 78.1559 68.3333 74.3847 68.3333Z" fill="#7E869E" fill-opacity="0.25" stroke="white" stroke-width="2"/>
</svg>
