<svg width="82" height="72" viewBox="0 0 82 72" fill="none" xmlns="http://www.w3.org/2000/svg">
<path d="M55.8384 46.4988L55.7447 47.4944L54.7348 47.3994L54.8442 46.391L55.8384 46.4988ZM36.2031 17.0935L35.9235 18.0536L34.9491 17.7698L35.2472 16.7997L36.2031 17.0935ZM80.7789 45.8079L81.7571 46.0158L81.7571 46.0158L80.7789 45.8079ZM80.0087 46.5781L80.2166 47.5563H80.2166L80.0087 46.5781ZM54.8442 46.391C54.9471 45.4418 55 44.4772 55 43.5H57C57 44.5494 56.9432 45.5859 56.8325 46.6066L54.8442 46.391ZM55 43.5C55 31.4427 46.9467 21.2637 35.9235 18.0536L36.4827 16.1333C48.3365 19.5854 57 30.5297 57 43.5H55ZM35.2472 16.7997C38.2364 7.07275 47.2913 0 58.0008 0V2C48.1941 2 39.8974 8.47606 37.159 17.3872L35.2472 16.7997ZM58.0008 0C71.1452 0 81.8008 10.6556 81.8008 23.8H79.8008C79.8008 11.7602 70.0406 2 58.0008 2V0ZM81.8008 23.8V45.3333H79.8008V23.8H81.8008ZM81.8008 45.3333C81.8008 45.53 81.8063 45.7843 81.7571 46.0158L79.8008 45.6C79.7946 45.6289 79.797 45.6367 79.7987 45.5885C79.8006 45.5362 79.8008 45.4645 79.8008 45.3333H81.8008ZM81.7571 46.0158C81.5928 46.7885 80.9892 47.3921 80.2166 47.5563L79.8008 45.6H79.8008L81.7571 46.0158ZM80.2166 47.5563C79.9851 47.6055 79.7308 47.6 79.5341 47.6V45.6C79.6653 45.6 79.737 45.5998 79.7893 45.5979C79.8375 45.5962 79.8297 45.5939 79.8008 45.6L80.2166 47.5563ZM79.5341 47.6H58.0008V45.6H79.5341V47.6ZM58.0008 47.6C57.2402 47.6 56.4876 47.5643 55.7447 47.4944L55.932 45.5032C56.6127 45.5672 57.3028 45.6 58.0008 45.6V47.6Z" fill="white"/>
<path d="M71.0996 21L53.9996 21" stroke="white" stroke-width="2" stroke-linecap="round" stroke-linejoin="round"/>
<path d="M71.0996 29H62.5496" stroke="white" stroke-width="2" stroke-linecap="round" stroke-linejoin="round"/>
<path d="M71.0996 37H62.5496" stroke="white" stroke-width="2" stroke-linecap="round" stroke-linejoin="round"/>
<path d="M56 43.5C56 28.3122 43.6878 16 28.5 16C13.3122 16 1 28.3122 1 43.5V69.4722C1 69.9643 1 70.2103 1.08469 70.4027C1.18543 70.6317 1.36831 70.8146 1.59725 70.9153C1.78972 71 2.03574 71 2.52778 71H28.5C43.6878 71 56 58.6878 56 43.5Z" fill="#7E869E" fill-opacity="0.25" stroke="white" stroke-width="2"/>
<path d="M15.4736 38.4342L36.0986 38.4342" stroke="white" stroke-width="2" stroke-linecap="round" stroke-linejoin="round"/>
<path d="M15.4736 48.0834H25.7861" stroke="white" stroke-width="2" stroke-linecap="round" stroke-linejoin="round"/>
<path d="M15.4736 57.7324H25.7861" stroke="white" stroke-width="2" stroke-linecap="round" stroke-linejoin="round"/>
</svg>
