<svg width="86" height="86" viewBox="0 0 86 86" fill="none" xmlns="http://www.w3.org/2000/svg">
<path d="M57.8384 47.4988L57.7447 48.4944L56.7348 48.3994L56.8442 47.391L57.8384 47.4988ZM38.2031 18.0935L37.9235 19.0536L36.9491 18.7698L37.2472 17.7997L38.2031 18.0935ZM82.7789 46.8079L83.7571 47.0158L83.7571 47.0158L82.7789 46.8079ZM82.0087 47.5781L82.2166 48.5563H82.2166L82.0087 47.5781ZM56.8442 47.391C56.9471 46.4418 57 45.4772 57 44.5H59C59 45.5494 58.9432 46.5859 58.8325 47.6066L56.8442 47.391ZM57 44.5C57 32.4427 48.9467 22.2637 37.9235 19.0536L38.4827 17.1333C50.3365 20.5854 59 31.5297 59 44.5H57ZM37.2472 17.7997C40.2364 8.07275 49.2913 1 60.0008 1V3C50.1941 3 41.8974 9.47606 39.159 18.3872L37.2472 17.7997ZM60.0008 1C73.1452 1 83.8008 11.6556 83.8008 24.8H81.8008C81.8008 12.7602 72.0406 3 60.0008 3V1ZM83.8008 24.8V46.3333H81.8008V24.8H83.8008ZM83.8008 46.3333C83.8008 46.53 83.8063 46.7843 83.7571 47.0158L81.8008 46.6C81.7946 46.6289 81.797 46.6367 81.7987 46.5885C81.8006 46.5362 81.8008 46.4645 81.8008 46.3333H83.8008ZM83.7571 47.0158C83.5928 47.7885 82.9892 48.3921 82.2166 48.5563L81.8008 46.6H81.8008L83.7571 47.0158ZM82.2166 48.5563C81.9851 48.6055 81.7308 48.6 81.5341 48.6V46.6C81.6653 46.6 81.737 46.5998 81.7893 46.5979C81.8375 46.5962 81.8297 46.5939 81.8008 46.6L82.2166 48.5563ZM81.5341 48.6H60.0008V46.6H81.5341V48.6ZM60.0008 48.6C59.2402 48.6 58.4876 48.5643 57.7447 48.4944L57.932 46.5032C58.6127 46.5672 59.3028 46.6 60.0008 46.6V48.6Z" fill="white"/>
<path d="M73.0996 22L55.9996 22" stroke="white" stroke-width="2" stroke-linecap="round" stroke-linejoin="round"/>
<path d="M73.0996 30H64.5496" stroke="white" stroke-width="2" stroke-linecap="round" stroke-linejoin="round"/>
<path d="M73.0996 38H64.5496" stroke="white" stroke-width="2" stroke-linecap="round" stroke-linejoin="round"/>
<path d="M58 44.5C58 29.3122 45.6878 17 30.5 17C15.3122 17 3 29.3122 3 44.5V70.4722C3 70.9643 3 71.2103 3.08469 71.4027C3.18543 71.6317 3.36831 71.8146 3.59725 71.9153C3.78972 72 4.03574 72 4.52778 72H30.5C45.6878 72 58 59.6878 58 44.5Z" fill="#7E869E" fill-opacity="0.25" stroke="white" stroke-width="2"/>
<path d="M17.4736 39.4342L38.0986 39.4342" stroke="white" stroke-width="2" stroke-linecap="round" stroke-linejoin="round"/>
<path d="M17.4736 49.0834H27.7861" stroke="white" stroke-width="2" stroke-linecap="round" stroke-linejoin="round"/>
<path d="M17.4736 58.7324H27.7861" stroke="white" stroke-width="2" stroke-linecap="round" stroke-linejoin="round"/>
</svg>
