<svg width="86" height="86" viewBox="0 0 86 86" fill="none" xmlns="http://www.w3.org/2000/svg">
<g clip-path="url(#clip0_386_137)">
<path d="M27.8008 22.9575L18.0523 17.5416L1.80469 43.5377L11.5532 48.9536L14.8027 45.1625L20.2186 50.0368L24.0097 48.9536L26.176 51.1199L29.9671 48.9536L32.1335 50.0368V52.2031L31.0503 53.8279L34.2998 54.911L35.9246 58.1606L38.0909 59.2437L38.6325 61.4101L38.0909 63.5764V65.7428L47.2979 68.9923L50.0058 67.3675L52.1722 65.7428L57.0464 63.5764L57.588 61.4101L61.9207 59.2437V57.0774C65.7118 59.2437 67.156 54.3695 66.795 52.2031L45.1315 37.0387H42.9652H39.7157L38.0909 38.1219L35.9246 40.2882H28.884L34.2998 31.0813H29.9671L25.0929 28.9149L27.8008 22.9575Z" fill="#7E869E" fill-opacity="0.25"/>
<path d="M23.9707 28.1913L29.5168 30.9643H35.0629" stroke="white" stroke-width="2"/>
<path d="M61.5311 29.4157L59.709 30.3386C59.0837 30.6552 58.3639 30.7229 57.6917 30.5283L49.7095 28.218C49.2102 28.0735 48.6935 28 48.1742 28H39.3737C38.4536 28 37.5478 28.2302 36.7367 28.67C35.9255 29.1098 35.2341 29.7456 34.7237 30.521L28 40.7383H34.8873C35.3473 40.7383 35.8002 40.6233 36.2058 40.4034C36.6114 40.1836 36.9571 39.8655 37.2123 39.4777L38.3475 37.7528C38.6027 37.3651 38.9484 37.047 39.354 36.8271C39.7596 36.6072 40.2125 36.4923 40.6725 36.4923H42.5224C43.074 36.4923 43.6133 36.6578 44.0724 36.9678L65.4446 51.4012C65.8398 51.6681 66.1772 52.014 66.436 52.4175C66.6948 52.821 66.8697 53.2738 66.9499 53.7481C67.0301 54.2224 67.0139 54.7081 66.9024 55.1759C66.7909 55.6436 66.5864 56.0836 66.3014 56.4685L66.2154 56.5846C65.697 57.285 64.9406 57.7657 64.0926 57.934C63.2446 58.1023 62.3651 57.9462 61.6241 57.4958L50.3541 50.6455" stroke="white" stroke-width="2" stroke-linecap="round" stroke-linejoin="round"/>
<path d="M65.5684 50.3756L71.1145 43.443" stroke="white" stroke-width="2"/>
<path d="M19.8117 50.3758L14.2656 44.8297" stroke="white" stroke-width="2"/>
<path fill-rule="evenodd" clip-rule="evenodd" d="M58.0806 23.3384L75.3358 48.9891L85.0312 43.4468" stroke="white" stroke-width="2" stroke-linecap="round" stroke-linejoin="round"/>
<path fill-rule="evenodd" clip-rule="evenodd" d="M28.1209 22.6617L11.5002 48.9891L1.80469 43.4468" stroke="white" stroke-width="2" stroke-linecap="round" stroke-linejoin="round"/>
<path d="M30.9208 49.4249L31.0682 49.5221C32.3311 50.3482 32.6786 52.0293 31.8472 53.291L26.3503 61.6332C25.5189 62.895 23.8328 63.2457 22.5699 62.4196L22.4225 62.3224C21.1595 61.4961 20.8121 59.8152 21.6434 58.5535L27.1404 50.2113C27.9717 48.9496 29.6578 48.5986 30.9208 49.4249Z" stroke="white" stroke-width="2" stroke-linecap="round" stroke-linejoin="round"/>
<path d="M34.0999 54.8439C35.3854 55.685 35.743 57.397 34.9018 58.6826L31.1057 64.4836C30.2644 65.7689 28.5523 66.1266 27.2668 65.2855C25.9813 64.4442 25.6237 62.7321 26.4649 61.4465L30.261 55.6458C31.1023 54.3602 32.8144 54.0026 34.0999 54.8439Z" stroke="white" stroke-width="2" stroke-linecap="round" stroke-linejoin="round"/>
<path d="M37.7976 59.1284C39.0871 59.9634 39.455 61.675 38.6223 62.9661L36.1516 66.7973C35.3189 68.0885 33.6105 68.4558 32.321 67.6206C31.0315 66.7856 30.6637 65.074 31.4963 63.7829L33.9671 59.9517C34.7997 58.6605 36.5081 58.2932 37.7976 59.1284Z" stroke="white" stroke-width="2" stroke-linecap="round" stroke-linejoin="round"/>
<path d="M24.3777 49.3861C25.6672 50.2211 26.035 51.9326 25.2024 53.2238L22.7316 57.055C21.899 58.3461 20.1906 58.7131 18.901 57.8779C17.6115 57.0429 17.2438 55.3314 18.0764 54.0402L20.5472 50.209C21.3798 48.9179 23.0882 48.5509 24.3777 49.3861Z" stroke="white" stroke-width="2" stroke-linecap="round" stroke-linejoin="round"/>
<path d="M62.1054 58.0744L60.915 59.7142C60.2962 60.5666 59.3771 61.1524 58.3432 61.3536C57.3093 61.5547 56.2375 61.356 55.3443 60.7977L47.543 55.9219" stroke="white" stroke-width="2" stroke-linecap="round" stroke-linejoin="round"/>
<path d="M57.9836 62.1805L56.7559 63.872C56.1291 64.7354 55.2057 65.3368 54.1627 65.5611C53.1196 65.7855 52.0305 65.6169 51.1042 65.0876L44.7695 61.4679" stroke="white" stroke-width="2" stroke-linecap="round" stroke-linejoin="round"/>
<path d="M51.4466 65.6908L50.2309 67.5489C49.8042 68.201 49.1673 68.6872 48.4259 68.9273C47.6846 69.1674 46.8834 69.1468 46.1554 68.8687L37.8379 65.6908" stroke="white" stroke-width="2" stroke-linejoin="round"/>
</g>
<defs>
<clipPath id="clip0_386_137">
<rect width="86" height="86" fill="white"/>
</clipPath>
</defs>
</svg>
