<svg width="86" height="55" viewBox="0 0 86 55" fill="none" xmlns="http://www.w3.org/2000/svg">
<path d="M27.8008 6.95748L18.0523 1.54163L1.80469 27.5377L11.5532 32.9536L14.8027 29.1625L20.2186 34.0368L24.0097 32.9536L26.176 35.1199L29.9671 32.9536L32.1335 34.0368V36.2031L31.0503 37.8279L34.2998 38.911L35.9246 42.1606L38.0909 43.2437L38.6325 45.4101L38.0909 47.5764V49.7428L47.2979 52.9923L50.0058 51.3675L52.1722 49.7428L57.0464 47.5764L57.588 45.4101L61.9207 43.2437V41.0774C65.7118 43.2437 67.156 38.3695 66.795 36.2031L45.1315 21.0387H42.9652H39.7157L38.0909 22.1219L35.9246 24.2882H28.884L34.2998 15.0813H29.9671L25.0929 12.9149L27.8008 6.95748Z" fill="#7E869E" fill-opacity="0.25"/>
<path d="M23.9707 12.1913L29.5168 14.9643H35.0629" stroke="white" stroke-width="2"/>
<path d="M61.5311 13.4157L59.709 14.3386C59.0837 14.6552 58.3639 14.7229 57.6917 14.5283L49.7095 12.218C49.2102 12.0735 48.6935 12 48.1742 12H39.3737C38.4536 12 37.5478 12.2302 36.7367 12.67C35.9255 13.1098 35.2341 13.7456 34.7237 14.521L28 24.7383H34.8873C35.3473 24.7383 35.8002 24.6233 36.2058 24.4034C36.6114 24.1836 36.9571 23.8655 37.2123 23.4777L38.3475 21.7528C38.6027 21.3651 38.9484 21.047 39.354 20.8271C39.7596 20.6072 40.2125 20.4923 40.6725 20.4923H42.5224C43.074 20.4923 43.6133 20.6578 44.0724 20.9678L65.4446 35.4012C65.8398 35.6681 66.1772 36.014 66.436 36.4175C66.6948 36.821 66.8697 37.2738 66.9499 37.7481C67.0301 38.2224 67.0139 38.7081 66.9024 39.1759C66.7909 39.6436 66.5864 40.0836 66.3014 40.4685L66.2154 40.5846C65.697 41.285 64.9406 41.7657 64.0926 41.934C63.2446 42.1023 62.3651 41.9462 61.6241 41.4958L50.3541 34.6455" stroke="white" stroke-width="2" stroke-linecap="round" stroke-linejoin="round"/>
<path d="M65.5684 34.3756L71.1145 27.443" stroke="white" stroke-width="2"/>
<path d="M19.8117 34.3758L14.2656 28.8297" stroke="white" stroke-width="2"/>
<path fill-rule="evenodd" clip-rule="evenodd" d="M58.0806 7.33841L75.3358 32.9891L85.0312 27.4468" stroke="white" stroke-width="2" stroke-linecap="round" stroke-linejoin="round"/>
<path fill-rule="evenodd" clip-rule="evenodd" d="M28.1209 6.66171L11.5002 32.9891L1.80469 27.4468" stroke="white" stroke-width="2" stroke-linecap="round" stroke-linejoin="round"/>
<path d="M30.9208 33.4249L31.0682 33.5221C32.3311 34.3482 32.6786 36.0293 31.8472 37.291L26.3503 45.6332C25.5189 46.895 23.8328 47.2457 22.5699 46.4196L22.4225 46.3224C21.1595 45.4961 20.8121 43.8152 21.6434 42.5535L27.1404 34.2113C27.9717 32.9496 29.6578 32.5986 30.9208 33.4249Z" stroke="white" stroke-width="2" stroke-linecap="round" stroke-linejoin="round"/>
<path d="M34.0999 38.8439C35.3854 39.685 35.743 41.397 34.9018 42.6826L31.1057 48.4836C30.2644 49.7689 28.5523 50.1266 27.2668 49.2855C25.9813 48.4442 25.6237 46.7321 26.4649 45.4465L30.261 39.6458C31.1023 38.3602 32.8144 38.0026 34.0999 38.8439Z" stroke="white" stroke-width="2" stroke-linecap="round" stroke-linejoin="round"/>
<path d="M37.7976 43.1284C39.0871 43.9634 39.455 45.675 38.6223 46.9661L36.1516 50.7973C35.3189 52.0885 33.6105 52.4558 32.321 51.6206C31.0315 50.7856 30.6637 49.074 31.4963 47.7829L33.9671 43.9517C34.7997 42.6605 36.5081 42.2932 37.7976 43.1284Z" stroke="white" stroke-width="2" stroke-linecap="round" stroke-linejoin="round"/>
<path d="M24.3777 33.3861C25.6672 34.2211 26.035 35.9326 25.2024 37.2238L22.7316 41.055C21.899 42.3461 20.1906 42.7131 18.901 41.8779C17.6115 41.0429 17.2438 39.3314 18.0764 38.0402L20.5472 34.209C21.3798 32.9179 23.0882 32.5509 24.3777 33.3861Z" stroke="white" stroke-width="2" stroke-linecap="round" stroke-linejoin="round"/>
<path d="M62.1054 42.0744L60.915 43.7142C60.2962 44.5666 59.3771 45.1524 58.3432 45.3536C57.3093 45.5547 56.2375 45.356 55.3443 44.7977L47.543 39.9219" stroke="white" stroke-width="2" stroke-linecap="round" stroke-linejoin="round"/>
<path d="M57.9836 46.1805L56.7559 47.872C56.1291 48.7354 55.2057 49.3368 54.1627 49.5611C53.1196 49.7855 52.0305 49.6169 51.1042 49.0876L44.7695 45.4679" stroke="white" stroke-width="2" stroke-linecap="round" stroke-linejoin="round"/>
<path d="M51.4466 49.6908L50.2309 51.5489C49.8042 52.201 49.1673 52.6872 48.4259 52.9273C47.6846 53.1674 46.8834 53.1468 46.1554 52.8687L37.8379 49.6908" stroke="white" stroke-width="2" stroke-linejoin="round"/>
</svg>
