<svg width="86" height="86" viewBox="0 0 86 86" fill="none" xmlns="http://www.w3.org/2000/svg">
<g clip-path="url(#clip0_940_50)">
<path d="M25.5161 32.1115L42.3052 48.3289C42.6337 48.6462 42.7979 48.8048 43 48.8048C43.2021 48.8048 43.3663 48.6462 43.6948 48.3289L60.484 32.1115C63.7482 28.9584 64.5243 24.0222 62.385 20.0196C58.8886 13.4777 49.7864 12.7691 45.3197 18.6911L43.4832 21.126C43.2411 21.4471 42.7589 21.4471 42.5168 21.126L40.6803 18.6911C36.2136 12.7691 27.1114 13.4777 23.615 20.0196C21.4757 24.0222 22.2518 28.9584 25.5161 32.1115Z" fill="#7E869E" fill-opacity="0.25"/>
<path d="M22.5794 30.0816L42.3204 48.3704C42.6428 48.6691 42.804 48.8184 43 48.8184C43.196 48.8184 43.3572 48.6691 43.6796 48.3704L63.4206 30.0816C68.2667 25.592 68.8533 18.1336 64.7687 12.9415L64.5298 12.6379C58.8473 5.41473 47.5633 6.63738 43.5598 14.91C43.3333 15.378 42.6667 15.378 42.4402 14.91C38.4367 6.63738 27.1527 5.41473 21.4702 12.6379L21.2313 12.9415C17.1467 18.1336 17.7333 25.592 22.5794 30.0816Z" stroke="white" stroke-width="2"/>
<path d="M76.0292 57.7229L76.0317 57.7251C77.3991 58.9522 77.2892 61.033 75.9202 62.1189L75.9182 62.1205L57.5442 76.7721C56.3368 77.7324 54.843 78.25 53.3055 78.25H9.94444C9.42391 78.25 9 77.8225 9 77.3125V65.6875C9 65.1775 9.42391 64.75 9.94444 64.75H16.6771H17.0305L17.3055 64.5279L22.956 59.9631C22.956 59.9631 22.9561 59.963 22.9562 59.963C25.3313 58.0471 28.2818 57 31.3333 57H50.7778C52.5451 57 53.9289 58.5674 53.6316 60.365C53.4077 61.7122 52.0907 62.75 50.5712 62.75H41.0556C39.4372 62.75 38.1111 64.0662 38.1111 65.6875C38.1111 67.3088 39.4372 68.625 41.0556 68.625H55.4323C57.429 68.625 59.3637 67.9572 60.9176 66.7109C60.9182 66.7105 60.9187 66.7101 60.9192 66.7096L72.1458 57.7629L72.149 57.7604C73.3295 56.8117 75.0108 56.8027 76.0292 57.7229Z" stroke="white" stroke-width="2"/>
</g>
<defs>
<clipPath id="clip0_940_50">
<rect width="86" height="86" fill="white"/>
</clipPath>
</defs>
</svg>
