<svg width="27" height="35" viewBox="0 0 27 35" fill="none" xmlns="http://www.w3.org/2000/svg">
<path fill-rule="evenodd" clip-rule="evenodd" d="M0.229444 2.43365V4.8673L1.45039 4.78962L2.67134 4.71194L2.74974 3.50211L2.82814 2.29229H4.21257C5.75688 2.29229 5.76587 2.28542 6.01829 0.953085L6.19873 0H3.21396H0.229444V2.43365ZM8.63344 1.25618C8.23374 4.59961 5.21195 7.59462 1.74214 8.08594C0.359765 8.2818 0.357965 8.28333 0.276226 9.2685C0.231243 9.81127 0.289078 10.3441 0.404747 10.4531C0.745071 10.7733 3.53218 10.2211 4.96519 9.54944C8.2561 8.00672 10.4741 4.98981 11.0026 1.33717L11.1961 0H9.98985H8.78355L8.63344 1.25618ZM15.2998 0.573073C15.2147 0.888391 15.1433 1.45535 15.1415 1.83332C15.134 3.28817 13.8568 6.5366 12.5888 8.32561C10.0009 11.977 6.30155 14.1488 1.82259 14.646L0.202455 14.8258L0.280338 15.8815L0.357965 16.9375L1.75473 16.899C4.77883 16.8155 8.55787 15.3291 11.3542 13.1234C13.0384 11.7949 14.886 9.45418 15.8825 7.38628C16.254 6.61581 16.6639 5.98543 16.7938 5.98543C16.9236 5.98543 17.5932 6.57582 18.2818 7.29739L19.5341 8.60934L18.4283 10.4521C16.9855 12.857 14.2606 15.7381 12.0554 17.1909C8.94934 19.2369 4.67961 20.6306 1.51748 20.6306C-0.103169 20.6306 -0.190563 20.8138 0.182405 23.4277C0.914461 28.5566 4.05526 32.5134 8.90821 34.4206C10.1536 34.9098 10.8617 35 13.4671 35C16.0871 35 16.7776 34.9111 18.0527 34.4106C21.5678 33.0307 24.5282 30.2152 25.8167 27.0272C26.4441 25.4745 27.2325 21.0685 26.9354 20.7743C26.8649 20.7042 25.7566 20.5293 24.4724 20.3851C21.7739 20.082 19.2485 19.364 17.0917 18.2864L15.5756 17.5287L16.8449 16.2707L18.1144 15.013L18.9365 15.4192C20.1921 16.0399 22.8905 16.7467 24.7641 16.9456L26.4477 17.1242V15.9666V14.8092L24.9697 14.6495C23.1111 14.4488 20.0135 13.5192 19.8569 13.1152C19.7919 12.9474 20.1163 12.1914 20.5779 11.4355C21.0393 10.6793 21.439 10.0237 21.466 9.97861C21.493 9.93352 22.0757 10.0853 22.7605 10.3161C23.4455 10.5468 24.5554 10.8003 25.2268 10.8792L26.4477 11.0231V9.87418V8.72548L25.207 8.56222C21.5891 8.0867 18.2962 4.81534 17.8065 1.20982L17.642 0H16.5485C15.6317 0 15.4299 0.0927105 15.2998 0.573073ZM20.7859 0.861393C21.0871 2.18405 21.2344 2.29229 22.7358 2.29229H24.1344V3.56579V4.83928H25.2911H26.4477V2.41964V0H23.5187H20.59L20.7859 0.861393ZM10.8967 20.5275C9.61817 21.2895 5.70213 22.5529 3.86402 22.7961L2.48602 22.9785L2.65515 24.0332C2.86567 25.3484 3.82521 27.4581 4.77601 28.6962C6.22392 30.5817 8.80154 32.0974 11.6036 32.711L12.3104 32.8659V26.3662C12.3104 22.7915 12.2238 19.8772 12.1176 19.8905C12.0115 19.9037 11.4622 20.1903 10.8967 20.5275ZM14.6238 26.3277V32.8435L15.4592 32.6871C19.9343 31.8496 23.7136 28.0737 24.2968 23.8574C24.4608 22.6715 24.4593 22.6682 23.6964 22.6682C23.2756 22.6682 22.0472 22.4441 20.9668 22.1703C19.3112 21.7508 18.2342 21.3535 14.9451 19.9493C14.6929 19.8416 14.6238 21.2119 14.6238 26.3277Z" fill="#146F60"/>
</svg>
