<svg width="28" height="24" viewBox="0 0 28 24" fill="none" xmlns="http://www.w3.org/2000/svg">
<path d="M27.03 0.279998V5.155C26.0767 5.19833 25.145 5.56666 24.235 6.26C23.325 6.95333 22.5667 7.84166 21.96 8.925C21.3967 10.0083 21.115 11.2 21.115 12.5H27.03V23.875H14.94V13.865C14.94 11.005 15.5033 8.6 16.63 6.65C17.7567 4.65666 19.23 3.14 21.05 2.1C22.9133 1.01666 24.9067 0.409997 27.03 0.279998ZM12.08 0.279998V5.155C11.1267 5.19833 10.195 5.56666 9.285 6.26C8.375 6.95333 7.61667 7.84166 7.01 8.925C6.44667 10.0083 6.165 11.2 6.165 12.5H12.08V23.875H-0.00999975V13.865C-0.00999975 11.005 0.553334 8.6 1.68 6.65C2.80667 4.65666 4.28 3.14 6.1 2.1C7.96333 1.01666 9.95667 0.409997 12.08 0.279998Z" fill="#172F17"/>
</svg>
