<svg width="21" height="19" viewBox="0 0 21 19" fill="none" xmlns="http://www.w3.org/2000/svg">
<path d="M20.176 0.975999V4.576C19.472 4.608 18.784 4.88 18.112 5.392C17.44 5.904 16.88 6.56 16.432 7.36C16.016 8.16 15.808 9.04 15.808 10H20.176V18.4H11.248V11.008C11.248 8.896 11.664 7.12 12.496 5.68C13.328 4.208 14.416 3.088 15.76 2.32C17.136 1.52 18.608 1.072 20.176 0.975999ZM9.136 0.975999V4.576C8.432 4.608 7.744 4.88 7.072 5.392C6.4 5.904 5.84 6.56 5.392 7.36C4.976 8.16 4.768 9.04 4.768 10H9.136V18.4H0.208V11.008C0.208 8.896 0.624 7.12 1.456 5.68C2.288 4.208 3.376 3.088 4.72 2.32C6.096 1.52 7.568 1.072 9.136 0.975999Z" fill="#172F17"/>
</svg>
