<svg width="86" height="86" viewBox="0 0 86 86" fill="none" xmlns="http://www.w3.org/2000/svg">
<path d="M15.3174 26.6348C31.8772 38.4632 54.1229 38.4632 70.6827 26.6348V66.1814C53.5291 75.9834 32.4709 75.9834 15.3174 66.1814V26.6348Z" fill="#7E869E" fill-opacity="0.25"/>
<ellipse cx="42.9993" cy="22.5881" rx="27.3148" ry="11.5881" stroke="white" stroke-width="2"/>
<path d="M15.6846 42.4534C15.6846 42.4534 15.6846 55.7352 15.6846 62.2004C15.6846 68.6656 27.9138 73.9067 42.9993 73.9067C58.0849 73.9067 70.3141 68.6656 70.3141 62.2004C70.3141 58.9733 70.3141 43.6949 70.3141 43.6949" stroke="white" stroke-width="2" stroke-linecap="square"/>
<path d="M15.6846 22.5881C15.6846 22.5881 15.6846 36.2141 15.6846 42.5569C15.6846 48.8997 27.9138 54.0415 42.9993 54.0415C58.0849 54.0415 70.3141 48.8997 70.3141 42.5569C70.3141 39.3909 70.3141 22.5881 70.3141 22.5881" stroke="white" stroke-width="2"/>
</svg>
