<svg width="58" height="72" viewBox="0 0 58 72" fill="none" xmlns="http://www.w3.org/2000/svg">
<path d="M1.31738 16.6348C17.8772 28.4632 40.1229 28.4632 56.6827 16.6348V56.1814C39.5291 65.9834 18.4709 65.9834 1.31738 56.1814V16.6348Z" fill="#7E869E" fill-opacity="0.25"/>
<ellipse cx="28.9993" cy="12.5881" rx="27.3148" ry="11.5881" stroke="white" stroke-width="2"/>
<path d="M1.68457 32.4534C1.68457 32.4534 1.68457 45.7352 1.68457 52.2004C1.68457 58.6656 13.9138 63.9067 28.9993 63.9067C44.0849 63.9067 56.3141 58.6656 56.3141 52.2004C56.3141 48.9733 56.3141 33.6949 56.3141 33.6949" stroke="white" stroke-width="2" stroke-linecap="square"/>
<path d="M1.68457 12.5881C1.68457 12.5881 1.68457 26.2141 1.68457 32.5569C1.68457 38.8997 13.9138 44.0415 28.9993 44.0415C44.0849 44.0415 56.3141 38.8997 56.3141 32.5569C56.3141 29.3909 56.3141 12.5881 56.3141 12.5881" stroke="white" stroke-width="2"/>
</svg>
