<svg width="60" height="67" viewBox="0 0 60 67" fill="none" xmlns="http://www.w3.org/2000/svg">
<rect y="20" width="40" height="47" rx="4" fill="#7E869E" fill-opacity="0.25"/>
<path d="M12 41L33.5 41" stroke="white" stroke-width="2" stroke-linecap="round"/>
<path d="M12 30L26.3333 30" stroke="white" stroke-width="2" stroke-linecap="round"/>
<path d="M12 52L26.3333 52" stroke="white" stroke-width="2" stroke-linecap="round"/>
<path d="M51 37.5556V60C51 62.8284 51 64.2426 50.1213 65.1213C49.2426 66 47.8284 66 45 66H7C4.17157 66 2.75736 66 1.87868 65.1213C1 64.2426 1 62.8284 1 60V8C1 5.17157 1 3.75736 1.87868 2.87868C2.75736 2 4.17157 2 7 2H26" stroke="white" stroke-width="2" stroke-linecap="round"/>
<path d="M48 1L48 22.5" stroke="white" stroke-width="2" stroke-linecap="round"/>
<path d="M58.5 12L37 12" stroke="white" stroke-width="2" stroke-linecap="round"/>
</svg>
