<svg width="86" height="86" viewBox="0 0 86 86" fill="none" xmlns="http://www.w3.org/2000/svg">
<rect x="14" y="29" width="40" height="47" rx="4" fill="#7E869E" fill-opacity="0.25"/>
<path d="M26 50L47.5 50" stroke="white" stroke-width="2" stroke-linecap="round"/>
<path d="M26 39L40.3333 39" stroke="white" stroke-width="2" stroke-linecap="round"/>
<path d="M26 61L40.3333 61" stroke="white" stroke-width="2" stroke-linecap="round"/>
<path d="M65 46.5556V69C65 71.8284 65 73.2426 64.1213 74.1213C63.2426 75 61.8284 75 59 75H21C18.1716 75 16.7574 75 15.8787 74.1213C15 73.2426 15 71.8284 15 69V17C15 14.1716 15 12.7574 15.8787 11.8787C16.7574 11 18.1716 11 21 11H40" stroke="white" stroke-width="2" stroke-linecap="round"/>
<path d="M62 10L62 31.5" stroke="white" stroke-width="2" stroke-linecap="round"/>
<path d="M72.5 21L51 21" stroke="white" stroke-width="2" stroke-linecap="round"/>
</svg>
