<svg width="68" height="68" viewBox="0 0 68 68" fill="none" xmlns="http://www.w3.org/2000/svg">
<path d="M1 22.4443C1 20.0386 1 18.8358 1.5974 17.8692C2.19479 16.9026 3.27063 16.3647 5.42229 15.2889L30.4223 2.78885C32.1779 1.91104 33.0557 1.47214 34 1.47214C34.9443 1.47214 35.8221 1.91104 37.5777 2.78885L62.5777 15.2889C64.7294 16.3647 65.8052 16.9026 66.4026 17.8692C67 18.8358 67 20.0386 67 22.4443V59C67 62.7712 67 64.6569 65.8284 65.8284C64.6569 67 62.7712 67 59 67H9C5.22876 67 3.34315 67 2.17157 65.8284C1 64.6569 1 62.7712 1 59V22.4443Z" stroke="white" stroke-width="2"/>
<path d="M12.7896 41.7499L1 30V63C1 65.2091 2.79086 67 5 67H63C65.2091 67 67 65.2091 67 63V30L55.2104 41.7499C54.8355 42.1235 54.3278 42.3333 53.7985 42.3333H14.2015C13.6722 42.3333 13.1645 42.1235 12.7896 41.7499Z" fill="#7E869E" fill-opacity="0.25" stroke="white" stroke-width="2" stroke-linecap="round"/>
</svg>
