<svg width="86" height="86" viewBox="0 0 86 86" fill="none" xmlns="http://www.w3.org/2000/svg">
<path d="M10 31.4443C10 29.0386 10 27.8358 10.5974 26.8692C11.1948 25.9026 12.2706 25.3647 14.4223 24.2889L39.4223 11.7889C41.1779 10.911 42.0557 10.4721 43 10.4721C43.9443 10.4721 44.8221 10.911 46.5777 11.7889L71.5777 24.2889C73.7294 25.3647 74.8052 25.9026 75.4026 26.8692C76 27.8358 76 29.0386 76 31.4443V68C76 71.7712 76 73.6569 74.8284 74.8284C73.6569 76 71.7712 76 68 76H18C14.2288 76 12.3431 76 11.1716 74.8284C10 73.6569 10 71.7712 10 68V31.4443Z" stroke="white" stroke-width="2"/>
<path d="M21.7896 50.7499L10 39V72C10 74.2091 11.7909 76 14 76H72C74.2091 76 76 74.2091 76 72V39L64.2104 50.7499C63.8355 51.1235 63.3278 51.3333 62.7985 51.3333H23.2015C22.6722 51.3333 22.1645 51.1235 21.7896 50.7499Z" fill="#7E869E" fill-opacity="0.25" stroke="white" stroke-width="2" stroke-linecap="round"/>
</svg>
