<svg width="86" height="86" viewBox="0 0 86 86" fill="none" xmlns="http://www.w3.org/2000/svg">
<path d="M43 64L43 76" stroke="white" stroke-width="2" stroke-linecap="round" stroke-linejoin="round"/>
<path d="M23.6018 31.6621L41.6111 11.6518C42.4056 10.769 43.7898 10.769 44.5842 11.6518L62.5935 31.6621C63.7519 32.9491 62.8385 35 61.1069 35H25.0884C23.3568 35 22.4435 32.9491 23.6018 31.6621Z" stroke="white" stroke-width="2" stroke-linecap="round" stroke-linejoin="round"/>
<path fill-rule="evenodd" clip-rule="evenodd" d="M41.3889 35L19.4192 60.7004C18.3097 61.9983 19.232 64 20.9394 64H65.2577C66.9652 64 67.8875 61.9983 66.778 60.7004L44.8082 35H41.3889Z" fill="#7E869E" fill-opacity="0.25"/>
<path d="M19.4192 60.7004L18.659 60.0507H18.659L19.4192 60.7004ZM41.3889 35V34C41.0965 34 40.8188 34.128 40.6288 34.3502L41.3889 35ZM66.778 60.7004L66.0179 61.3502V61.3502L66.778 60.7004ZM44.8082 35L45.5684 34.3502C45.3784 34.128 45.1006 34 44.8082 34V35ZM20.1793 61.3502L42.149 35.6498L40.6288 34.3502L18.659 60.0507L20.1793 61.3502ZM20.9394 63C20.0857 63 19.6245 61.9992 20.1793 61.3502L18.659 60.0507C16.9948 61.9975 18.3782 65 20.9394 65V63ZM65.2577 63H20.9394V65H65.2577V63ZM66.0179 61.3502C66.5726 61.9992 66.1115 63 65.2577 63V65C67.8189 65 69.2023 61.9975 67.5381 60.0507L66.0179 61.3502ZM44.0481 35.6498L66.0179 61.3502L67.5381 60.0507L45.5684 34.3502L44.0481 35.6498ZM44.8082 34H41.3889V36H44.8082V34Z" fill="white"/>
</svg>
