<svg width="52" height="68" viewBox="0 0 52 68" fill="none" xmlns="http://www.w3.org/2000/svg">
<path d="M26 55L26 67" stroke="white" stroke-width="2" stroke-linecap="round" stroke-linejoin="round"/>
<path d="M6.60179 22.6621L24.6111 2.65176C25.4056 1.769 26.7898 1.769 27.5842 2.65176L45.5935 22.6621C46.7519 23.9491 45.8385 26 44.1069 26H8.08838C6.35684 26 5.44345 23.9491 6.60179 22.6621Z" stroke="white" stroke-width="2" stroke-linecap="round" stroke-linejoin="round"/>
<path fill-rule="evenodd" clip-rule="evenodd" d="M24.3889 26L2.41916 51.7004C1.30969 52.9983 2.23195 55 3.93941 55H48.2577C49.9652 55 50.8875 52.9983 49.778 51.7004L27.8082 26H24.3889Z" fill="#7E869E" fill-opacity="0.25"/>
<path d="M2.41916 51.7004L1.65904 51.0507H1.65904L2.41916 51.7004ZM24.3889 26V25C24.0965 25 23.8188 25.128 23.6288 25.3502L24.3889 26ZM49.778 51.7004L49.0179 52.3502V52.3502L49.778 51.7004ZM27.8082 26L28.5684 25.3502C28.3784 25.128 28.1006 25 27.8082 25V26ZM3.17929 52.3502L25.149 26.6498L23.6288 25.3502L1.65904 51.0507L3.17929 52.3502ZM3.93941 54C3.08568 54 2.62455 52.9992 3.17929 52.3502L1.65904 51.0507C-0.00516558 52.9975 1.37822 56 3.93941 56V54ZM48.2577 54H3.93941V56H48.2577V54ZM49.0179 52.3502C49.5726 52.9992 49.1115 54 48.2577 54V56C50.8189 56 52.2023 52.9975 50.5381 51.0507L49.0179 52.3502ZM27.0481 26.6498L49.0179 52.3502L50.5381 51.0507L28.5684 25.3502L27.0481 26.6498ZM27.8082 25H24.3889V27H27.8082V25Z" fill="white"/>
</svg>
