<svg width="86" height="86" viewBox="0 0 86 86" fill="none" xmlns="http://www.w3.org/2000/svg">
<path d="M54 46C54 44.3431 55.3431 43 57 43H79V61H57C55.3431 61 54 59.6569 54 58V46Z" fill="#7E869E" fill-opacity="0.25" stroke="white" stroke-width="2"/>
<path d="M7 19.7059V18C7 14.2288 7 12.3431 8.17157 11.1716C9.34315 10 11.2288 10 15 10L67 10C70.7712 10 72.6569 10 73.8284 11.1716C75 12.3431 75 14.2288 75 18V25.4118C75 27.2974 75 28.2402 74.4142 28.826C73.8284 29.4118 72.8856 29.4118 71 29.4118L55 29.4118M7 19.7059V25.4118C7 27.2974 7 28.2402 7.58579 28.826C8.17157 29.4118 9.11438 29.4118 11 29.4118L71 29.4118C74.7712 29.4118 76.6569 29.4118 77.8284 30.5833C79 31.7549 79 33.6405 79 37.4118L79 44.9412L79 60.4706L79 68C79 71.7712 79 73.6569 77.8284 74.8284C76.6569 76 74.7712 76 71 76L15 76C11.2288 76 9.34315 76 8.17157 74.8284C7 73.6569 7 71.7712 7 68L7 19.7059Z" stroke="white" stroke-width="2"/>
</svg>
