<svg width="74" height="68" viewBox="0 0 74 68" fill="none" xmlns="http://www.w3.org/2000/svg">
<path d="M48 37C48 35.3431 49.3431 34 51 34H73V52H51C49.3431 52 48 50.6569 48 49V37Z" fill="#7E869E" fill-opacity="0.25" stroke="white" stroke-width="2"/>
<path d="M1 10.7059V9C1 5.22876 1 3.34315 2.17157 2.17157C3.34315 1 5.22876 1 9 1L61 1C64.7712 1 66.6569 1 67.8284 2.17157C69 3.34315 69 5.22876 69 9V16.4118C69 18.2974 69 19.2402 68.4142 19.826C67.8284 20.4118 66.8856 20.4118 65 20.4118L49 20.4118M1 10.7059V16.4118C1 18.2974 1 19.2402 1.58579 19.826C2.17157 20.4118 3.11438 20.4118 5 20.4118L65 20.4118C68.7712 20.4118 70.6569 20.4118 71.8284 21.5833C73 22.7549 73 24.6405 73 28.4118L73 35.9412L73 51.4706L73 59C73 62.7712 73 64.6569 71.8284 65.8284C70.6569 67 68.7712 67 65 67L9 67C5.22876 67 3.34315 67 2.17157 65.8284C1 64.6569 1 62.7712 1 59L1 10.7059Z" stroke="white" stroke-width="2"/>
</svg>
