<svg width="22" height="23" viewBox="0 0 22 23" fill="none" xmlns="http://www.w3.org/2000/svg">
<path d="M13.388 5.25456C14.3232 5.44057 15.1827 5.90686 15.8565 6.59375C16.5302 7.28063 16.9876 8.15685 17.1701 9.11027M13.388 1.35004C15.331 1.57009 17.1429 2.45714 18.5261 3.86553C19.9093 5.27392 20.7817 7.11995 21 9.10051M20.0425 16.89V19.8184C20.0436 20.0903 19.989 20.3594 19.8821 20.6085C19.7753 20.8575 19.6186 21.0811 19.4221 21.2649C19.2256 21.4487 18.9937 21.5886 18.7411 21.6757C18.4885 21.7628 18.2208 21.7952 17.9552 21.7707C15.0089 21.4443 12.1787 20.4179 9.69214 18.774C7.37869 17.2753 5.4173 15.2757 3.94724 12.9172C2.32908 10.3707 1.32206 7.47134 1.00777 4.45413C0.983845 4.1842 1.01531 3.91214 1.10017 3.65529C1.18503 3.39844 1.32141 3.16241 1.50065 2.96223C1.67989 2.76206 1.89804 2.60213 2.14123 2.49262C2.38442 2.38311 2.64731 2.32642 2.91316 2.32617H5.78561C6.25028 2.3215 6.70076 2.48926 7.05309 2.79816C7.40541 3.10706 7.63554 3.53603 7.70057 4.00511C7.82181 4.94226 8.04665 5.86242 8.37081 6.74804C8.49963 7.09742 8.52751 7.47712 8.45115 7.84216C8.37478 8.2072 8.19737 8.54227 7.93994 8.80767L6.72394 10.0474C8.08697 12.4911 10.0717 14.5146 12.4688 15.9041L13.6848 14.6645C13.9452 14.402 14.2738 14.2211 14.6319 14.1433C14.99 14.0654 15.3624 14.0939 15.7051 14.2252C16.5738 14.5557 17.4764 14.7849 18.3956 14.9085C18.8608 14.9754 19.2855 15.2142 19.5892 15.5796C19.8928 15.9449 20.0542 16.4113 20.0425 16.89Z" stroke="#146F60" stroke-width="1.4" stroke-linecap="round" stroke-linejoin="round"/>
</svg>
