<svg width="25" height="26" viewBox="0 0 25 26" fill="none" xmlns="http://www.w3.org/2000/svg">
<g clip-path="url(#clip0_856_384)">
<path d="M12.5 25.0449C10.1823 25.0449 7.91656 24.3429 5.98942 23.0276C4.06228 21.7124 2.56026 19.8429 1.67329 17.6557C0.786328 15.4685 0.554257 13.0618 1.00643 10.7398C1.4586 8.4179 2.5747 6.28508 4.2136 4.61106C5.85249 2.93705 7.94058 1.79703 10.2138 1.33517C12.487 0.873307 14.8433 1.11035 16.9846 2.01632C19.1259 2.92229 20.9561 4.4565 22.2438 6.42493C23.5315 8.39337 24.2188 10.7076 24.2188 13.075C24.2188 16.2496 22.9841 19.2942 20.7864 21.539C18.5887 23.7838 15.608 25.0449 12.5 25.0449ZM12.5 2.70115C10.4913 2.70115 8.52768 3.30957 6.85749 4.44947C5.18731 5.58936 3.88556 7.20954 3.11685 9.10512C2.34815 11.0007 2.14702 13.0865 2.5389 15.0989C2.93079 17.1112 3.89807 18.9597 5.31845 20.4105C6.73883 21.8613 8.5485 22.8493 10.5186 23.2496C12.4887 23.6499 14.5308 23.4444 16.3866 22.6593C18.2424 21.8741 19.8286 20.5444 20.9446 18.8385C22.0606 17.1325 22.6563 15.1268 22.6563 13.075C22.6563 10.3237 21.5862 7.68507 19.6816 5.73959C17.7769 3.79411 15.1936 2.70115 12.5 2.70115Z" fill="#146F60"/>
<path d="M15.8125 17.5917L11.9453 13.6416C11.8729 13.567 11.8156 13.4786 11.7768 13.3814C11.7379 13.2842 11.7182 13.1801 11.7188 13.075V6.6911H13.2813V12.7479L16.9219 16.4585L15.8125 17.5917Z" fill="#146F60"/>
</g>
<defs>
<clipPath id="clip0_856_384">
<rect width="25" height="25.5357" fill="white" transform="translate(0 0.307175)"/>
</clipPath>
</defs>
</svg>
